<?xml version="1.0" encoding="utf-8"?>
<!-- Generator: Adobe Illustrator 24.0.2, SVG Export Plug-In . SVG Version: 6.00 Build 0)  -->
<svg version="1.1" id="Layer_2" xmlns="http://www.w3.org/2000/svg" xmlns:xlink="http://www.w3.org/1999/xlink" x="0px" y="0px"
	 viewBox="0 0 730 730" style="enable-background:new 0 0 730 730;" xml:space="preserve">
<path d="M706.4,251.8c-18.9-57-52.7-109.2-97.9-150.9c-45.2-41.7-99.8-71.3-158-85.6C428.8,10,395.1,5,381.2,5h-9.1l-21.2,42.1
	l-0.1,0l-98.1,203.6C199.3,361.1,149.1,464.4,140.7,481l-16.8,33.5l125.8,0l-26,51.8c-10.3,20.6-23.1,47.7-27.1,56.8
	C139.6,595.9,89.7,512.5,65.3,440.9c-7.3-28.5-9.6-47.6-9.6-78.6c0-42.9,6.4-77.4,21.5-115.6c36.8-92.9,117.1-163.1,214.9-187.9
	l16.4-4.2l9.4-21.6c6-13.9,9.1-21.5,9.1-22.7c0-1.1-0.6-3.1-4.5-3.1c0,0,0,0,0,0c-9.7,0-47.7,8.5-69.1,15.5
	C194.9,41.8,141.5,76.4,99,122.9c-42.5,46.5-72,102.6-85.4,162.2C1.6,338.2,2.1,398.4,14.8,450.2c12.5,50.8,36.6,99.4,69.9,140.5
	c33.3,41.1,76,75.2,123.5,98.7l15.1,7.4l1.1-2.4c16-35.7,33.1-71.6,49.6-106.4c11.3-23.8,23-48.4,34.2-72.7l0.8-1.6l106.1-0.5
	c57.1-0.3,121.4-1,143.4-1.7l43.9-1.3l-88.7-171.7c-23-44.5-44.8-86.5-61.5-118.1c-8.1-15.4-14.5-27.5-19.1-36
	c-7.6-14.1-7.7-14.2-9-14.6l-1-0.3l-0.9,0.5c-1,0.5-1.2,0.7-24.3,46.6c-13.2,26.3-30.9,61.7-49.8,99.7c-18.9,38-36.5,73.4-49.5,99.9
	c-22.7,46.1-22.7,46.6-22.7,47.4l0,1.1c-26.1-0.6-43.7-0.9-67.5-1.2c8.5-17.5,48.8-99.6,99.7-202.8L410.2,52.3
	c67.6,8.4,130.6,39.1,180.2,88.3c48.2,47.8,78.2,107,89.4,175.9c2.9,17.8,2.9,73,0,90.8c-11.1,69.1-40.9,128.2-88.5,175.7
	c-48.1,48-107.2,77.8-175.7,88.7c-35.9,5.7-89.7,3-125.1-6.3l-10.4-2.7l-10.7,21.9c-10.1,20.6-10.1,21.9-10.1,22.4
	c0,2.3,2.3,3.1,7,4.5c3.2,1,7.6,2.1,12.8,3.4c11.1,2.7,23.1,5.2,31.5,6.6c7,1.1,21.6,2.5,32.5,3.1c6.9,0.4,13.8,0.5,20.6,0.5
	c80.1,0,153.6-24.7,218.8-73.5c18.3-13.7,53.7-48.9,67.7-67.3c22.9-30.2,40.8-62.8,53.2-97c12.3-34.2,19.5-71,21.3-109.5
	C726.5,339,719.7,292,706.4,251.8z M423.1,279.3c5.9,10.2,23.6,43.6,47.3,90.1c24.7,48.4,41.8,83.1,46.2,93c-10,0.5-43.7,1-90.7,1.3
	l-92.9,0.6l45.4-93.7C400.6,324.8,417.6,290.2,423.1,279.3z"/>
</svg>
