<?xml version="1.0" encoding="utf-8"?>
<!-- Generator: Adobe Illustrator 24.1.1, SVG Export Plug-In . SVG Version: 6.00 Build 0)  -->
<svg version="1.1" id="Layer_1" xmlns="http://www.w3.org/2000/svg" xmlns:xlink="http://www.w3.org/1999/xlink" x="0px" y="0px"
	 viewBox="0 0 160 160" style="enable-background:new 0 0 160 160;" xml:space="preserve">
<style type="text/css">
	.st0{fill:#1394D5;}
	.st1{fill:#0087CC;}
	.st2{fill:#00338B;}
</style>
<g id="Group_23" transform="translate(-209.799 -769.449)">
	<g id="Group_8" transform="translate(229.845 789.514)">
		<path id="Path_2583" class="st0" d="M42.6,7.36C23.33,7.35,7.7,22.96,7.68,42.23C7.67,58.22,18.53,72.18,34.04,76.09
			c-5.82-4.73-6.71-13.28-1.99-19.1s13.28-6.71,19.1-1.99c5.82,4.73,6.71,13.28,1.99,19.1c-0.59,0.73-1.26,1.4-1.99,1.99
			c18.68-4.71,30.01-23.68,25.3-42.36C72.55,18.21,58.59,7.35,42.6,7.36z"/>
		<path id="Path_2584" class="st0" d="M38.07,79.12l-1.33,19.93l5.85,8.79l5.87-8.79l-1.36-20.29l-2.57,0.37L38.07,79.12z"/>
		<path id="Path_2585" class="st0" d="M79.44,15.12h11.64v7.76h-7.75v3.89h7.76v7.76H79.44v3.88h27.16v-3.88H94.97v-7.76h7.76v-3.88
			h-7.76v-7.76h11.63v-3.88H79.44V15.12z"/>
		<path id="Path_2586" class="st1" d="M97.46,30.08l2.75-2.74l3.88,3.88l-2.74,2.75L97.46,30.08z"/>
		<path id="Path_2587" class="st2" d="M110.48,3.49h-34.9c-3.2,0-6.19,1.59-8,4.23C48.49-6.08,21.83-1.8,8.03,17.29
			c-13.8,19.09-9.52,45.75,9.57,59.55c2.22,1.61,4.59,2.99,7.08,4.14c-5.77,3.98-9.21,10.53-9.22,17.54v21.34h44.61V94.97
			c0-0.94,0.37-1.84,1.04-2.51l29.76-29.76c2.9-2.91,2.89-7.61-0.01-10.51c-1.39-1.39-3.27-2.17-5.24-2.17
			c-0.36,0.01-0.72,0.05-1.08,0.11c0.25-1.32,0.43-2.64,0.55-3.98h9.89v9.44l14.16-9.44h1.35c5.36,0,9.7-4.34,9.7-9.7V13.18
			C120.18,7.83,115.84,3.49,110.48,3.49L110.48,3.49z M63.89,40.34c-0.15-5.28-1.08-10.51-2.73-15.52h4.72v11.64
			c0,1.34,0.28,2.66,0.82,3.88L63.89,40.34z M30.96,65.55c0-6.43,5.21-11.64,11.64-11.64s11.64,5.21,11.64,11.64
			c0,6.43-5.21,11.64-11.64,11.64C36.17,77.19,30.97,71.98,30.96,65.55z M57.99,63.61h10.96l-5.8,5.8
			c-2.34,2.33-5.11,4.18-8.16,5.44C57.45,71.65,58.53,67.61,57.99,63.61L57.99,63.61z M56.98,59.73
			c-3.2-7.94-12.24-11.78-20.17-8.57c-3.9,1.58-7,4.67-8.57,8.57h-0.05c-1.8-4.98-2.81-10.22-2.99-15.52h34.78
			c-0.17,5.3-1.18,10.53-2.98,15.52H56.98z M3.89,44.21h17.42c0.16,5.28,1.09,10.51,2.76,15.52H7.97
			C5.54,54.9,4.15,49.61,3.89,44.21L3.89,44.21z M3.91,40.34c0.26-5.4,1.66-10.69,4.1-15.52h16.03c-1.66,5.01-2.58,10.24-2.73,15.52
			L3.91,40.34z M25.24,40.34c0.17-5.3,1.18-10.54,2.99-15.52h28.76c1.81,4.98,2.82,10.22,2.99,15.52H25.24z M42.6,4.02
			c5.41,4.67,9.76,10.44,12.77,16.93H29.83C32.84,14.46,37.19,8.69,42.6,4.02L42.6,4.02z M65.87,13.18v7.76H59.7
			c-2.68-6.35-6.56-12.12-11.42-17.01c6.46,0.96,12.57,3.53,17.77,7.48C65.94,12,65.88,12.59,65.87,13.18L65.87,13.18z M36.9,3.96
			c-4.86,4.88-8.73,10.65-11.4,16.99H10.23C16.31,11.75,26,5.57,36.9,3.96L36.9,3.96z M10.24,63.61h16.98
			c-0.71,5.31,1.41,10.6,5.58,13.96c-1.26,0.24-2.5,0.6-3.7,1.06C21.38,75.76,14.77,70.5,10.24,63.61L10.24,63.61z M89.14,57.46
			c0,0.94-0.37,1.84-1.04,2.51L58.35,89.73c-1.4,1.39-2.18,3.28-2.18,5.24v21.01H29.02V92.7h-3.88v23.28h-5.82V98.52
			c0.01-9.63,7.82-17.44,17.46-17.45h7.75l4.9-0.68c6.23-0.9,12-3.79,16.45-8.23L83.1,54.94c1.39-1.38,3.63-1.38,5.02,0
			c0.66,0.67,1.04,1.57,1.04,2.51L89.14,57.46z M80,52.56l-7.17,7.18H61.13c1.67-5.01,2.59-10.24,2.75-15.52h5.92
			c1.66,1.25,3.68,1.94,5.76,1.94h5.63C80.97,48.32,80.58,50.47,80,52.56L80,52.56z M116.3,36.46c0,3.21-2.61,5.82-5.82,5.82h-2.52
			l-9.11,6.07v-6.07H75.58c-3.21,0-5.82-2.61-5.82-5.82V13.18c0-3.21,2.61-5.82,5.82-5.82h34.9c3.21,0,5.82,2.61,5.82,5.82
			L116.3,36.46z"/>
		<path id="Path_2588" class="st2" d="M110.48,84.94h-1.35L94.97,75.5v9.44H79.45c-5.35,0.01-9.69,4.35-9.69,9.7v15.51
			c0,5.35,4.34,9.69,9.69,9.7h31.03c5.36,0,9.7-4.34,9.7-9.7V94.64C120.18,89.29,115.84,84.95,110.48,84.94z M116.3,110.16
			c0,3.21-2.61,5.82-5.82,5.82H79.45c-3.21,0-5.82-2.61-5.82-5.82V94.64c0.01-3.21,2.61-5.81,5.82-5.82h19.39v-6.07l9.11,6.07h2.52
			c3.21,0,5.82,2.61,5.82,5.82V110.16z"/>
		<path id="Path_2589" class="st2" d="M32.9,32.57h3.88v3.88H32.9V32.57z"/>
		<path id="Path_2590" class="st2" d="M40.67,32.57h3.86v3.88h-3.87L40.67,32.57z"/>
		<path id="Path_2591" class="st2" d="M48.42,32.57h3.88v3.88h-3.88V32.57z"/>
		<path id="Path_2592" class="st1" d="M97.85,100.46h6.81v-3.88h-7.68c-0.03-0.34-0.07-0.68-0.07-1.02V92.7h-3.89v2.86
			c0,0.34-0.04,0.68-0.07,1.02h-7.69v3.88h6.82c-1.09,2.81-3.08,5.17-5.65,6.73l-2.16,1.3l1.99,3.33l2.16-1.3
			c1.76-1.07,3.32-2.44,4.6-4.06v5.63h3.88v-5.63c1.28,1.61,2.84,2.99,4.6,4.06l2.16,1.3l2-3.33l-2.16-1.3
			C100.93,105.64,98.95,103.28,97.85,100.46L97.85,100.46z"/>
	</g>
</g>
</svg>
