<?xml version="1.0" encoding="utf-8"?>
<!-- Generator: Adobe Illustrator 24.1.1, SVG Export Plug-In . SVG Version: 6.00 Build 0)  -->
<svg version="1.1" id="Layer_1" xmlns="http://www.w3.org/2000/svg" xmlns:xlink="http://www.w3.org/1999/xlink" x="0px" y="0px"
	 viewBox="0 0 160 160" style="enable-background:new 0 0 160 160;" xml:space="preserve">
<style type="text/css">
	.st0{fill:none;}
	.st1{fill:#00338B;}
	.st2{fill:#1394D5;}
</style>
<g id="Group_24" transform="translate(-98.753 -794.386)">
	<rect id="Rectangle_440" x="98.69" y="794.02" class="st0" width="160" height="160"/>
	<g id="Group_11" transform="translate(118.753 814.386)">
		<g id="Group_10" transform="translate(0 15.127)">
			<path id="Path_2593" class="st1" d="M90.9,104.5H75.42c-3.21,0-5.8-2.6-5.81-5.81v-5.81H58v5.81c0,3.21-2.6,5.8-5.81,5.81H36.71
				c-3.21,0-5.8-2.6-5.81-5.81V85.8c-9.97-6.11-17.42-15.6-20.99-26.74l-2.98,0.75c-0.45,0.12-0.92,0.18-1.39,0.18
				c-3.1-0.01-5.61-2.53-5.61-5.63V34.65c0-3.11,2.51-5.63,5.62-5.63c0.47,0,0.93,0.06,1.39,0.18l2.97,0.75
				c4.38-13.75,14.64-24.86,28-30.31l1.45,3.59C26.5,8.47,16.8,19.4,13.11,32.8l-0.5,1.83l-6.62-1.68c-0.97-0.21-1.93,0.4-2.14,1.36
				c0,0,0,0,0,0c-0.02,0.11-0.04,0.22-0.04,0.33v19.71c0.03,0.99,0.86,1.77,1.85,1.74c0.11,0,0.22-0.02,0.33-0.04l6.63-1.69
				l0.5,1.83c3.13,11.3,10.56,20.93,20.69,26.82l0.97,0.56V98.7c0,1.07,0.87,1.93,1.93,1.93H52.2c1.07,0,1.93-0.87,1.93-1.93v-9.68
				h19.35v9.68c0,1.07,0.87,1.93,1.94,1.93H90.9c1.07,0,1.93-0.87,1.93-1.93V83.61l0.97-0.56c21.29-12.29,28.59-39.52,16.29-60.82
				c-4.96-8.59-12.65-15.29-21.85-19.01l1.45-3.59c24.77,10.03,36.73,38.25,26.69,63.02c-3.9,9.64-10.8,17.76-19.68,23.17v12.87
				C96.71,101.9,94.11,104.5,90.9,104.5z"/>
			<path id="Path_2594" class="st1" d="M32.83,34.82c-4.27,0-7.74-3.47-7.73-7.75c0-4.27,3.47-7.74,7.75-7.73
				c4.27,0,7.73,3.47,7.73,7.74C40.58,31.36,37.11,34.82,32.83,34.82C32.84,34.82,32.83,34.82,32.83,34.82z M32.83,23.21
				c-2.14,0-3.87,1.73-3.88,3.87c0,2.14,1.73,3.87,3.87,3.88c2.14,0,3.87-1.73,3.88-3.87l0,0C36.7,24.95,34.97,23.21,32.83,23.21
				L32.83,23.21z"/>
			<rect id="Rectangle_441" x="46.39" y="17.41" class="st1" width="34.84" height="3.87"/>
			<path id="Path_2595" class="st1" d="M107.59,37.14c-2.32-11.21-9.71-20.72-20-25.74l1.69-3.48c11.37,5.55,19.53,16.06,22.1,28.45
				L107.59,37.14z"/>
			<path id="Path_2596" class="st1" d="M112.2,44.5h-3.87c0-1.23-0.06-2.47-0.18-3.68l3.86-0.38
				C112.13,41.78,112.2,43.14,112.2,44.5z"/>
		</g>
		<path id="Path_2597" class="st2" d="M78.01-0.37h-1.93c-3.42-0.01-6.7,1.35-9.11,3.77l-3.16,3.17L60.64,3.4
			c-2.41-2.42-5.69-3.78-9.11-3.77h-1.93C42.48-0.38,36.7,5.38,36.7,12.5c0,3.43,1.36,6.71,3.78,9.13l10.92,10.9h24.82l10.91-10.9
			c5.03-5.03,5.04-13.19,0.01-18.22C84.72,0.99,81.43-0.37,78.01-0.37L78.01-0.37z"/>
	</g>
</g>
</svg>
