<?xml version="1.0" encoding="utf-8"?>
<!-- Generator: Adobe Illustrator 24.2.1, SVG Export Plug-In . SVG Version: 6.00 Build 0)  -->
<svg version="1.1" id="Layer_1" xmlns="http://www.w3.org/2000/svg" xmlns:xlink="http://www.w3.org/1999/xlink" x="0px" y="0px"
	 viewBox="0 0 129.9 35.2" style="enable-background:new 0 0 129.9 35.2;" xml:space="preserve">
<style type="text/css">
	.st0{fill:#FFFFFF;}
</style>
<g id="Group_38" transform="translate(-36 -125.906)">
	<g id="Group_4" transform="translate(36 207.269)">
		<g id="Group_2" transform="translate(0.324 0)">
			<path id="Path_3" class="st0" d="M3-61.8c-0.1-0.1-0.2-0.3-0.2-0.5v-18c0-0.2,0.1-0.4,0.2-0.5C3.1-80.9,3.3-81,3.5-81h7.7
				c2-0.1,4,0.5,5.6,1.6c1.4,1.2,2.2,2.9,2,4.8c0.1,1.8-0.6,3.5-2,4.7c-1.6,1.1-3.6,1.7-5.6,1.6H7.9v6.1c0,0.2-0.1,0.4-0.2,0.5
				c-0.1,0.1-0.3,0.2-0.5,0.2H3.4C3.3-61.6,3.1-61.6,3-61.8z M11.1-72.1c0.7,0,1.4-0.2,1.9-0.6c0.5-0.5,0.7-1.2,0.7-1.8
				c0-0.7-0.2-1.3-0.6-1.8c-0.5-0.5-1.2-0.7-2-0.7H7.8v4.9L11.1-72.1z"/>
			<path id="Path_4" class="st0" d="M21.7-61.8c-0.1-0.1-0.2-0.3-0.2-0.5v-18c0-0.2,0.1-0.4,0.2-0.5c0.1-0.1,0.3-0.2,0.5-0.2h3.7
				c0.2,0,0.4,0.1,0.5,0.2c0.1,0.1,0.2,0.3,0.2,0.5v14.5h8.4c0.2,0,0.4,0.1,0.5,0.2c0.1,0.1,0.2,0.3,0.2,0.5v2.8
				c0,0.2-0.1,0.4-0.2,0.5c-0.1,0.1-0.3,0.2-0.5,0.2H22.2C22-61.6,21.8-61.6,21.7-61.8z"/>
			<path id="Path_5" class="st0" d="M36.5-61.7c-0.1-0.1-0.2-0.2-0.2-0.4c0-0.1,0-0.2,0-0.2l6.5-17.8c0.1-0.2,0.2-0.4,0.4-0.6
				c0.2-0.2,0.5-0.2,0.7-0.2H48c0.3,0,0.5,0.1,0.7,0.2c0.2,0.1,0.3,0.3,0.4,0.6l6.5,17.8l0.1,0.2c0,0.2-0.1,0.3-0.2,0.4
				c-0.1,0.1-0.3,0.2-0.4,0.2h-3.4c-0.4,0-0.8-0.2-0.9-0.6L49.6-65h-7.4l-1,2.8c-0.1,0.4-0.5,0.6-0.9,0.6h-3.4
				C36.7-61.6,36.6-61.6,36.5-61.7z M48.5-69L46-76.3L43.4-69H48.5z"/>
			<path id="Path_6" class="st0" d="M60.3-61.8c-0.1-0.1-0.2-0.3-0.2-0.5v-14.3h-4.9c-0.4,0-0.7-0.3-0.7-0.7v-3
				c0-0.2,0.1-0.4,0.2-0.5c0.1-0.1,0.3-0.2,0.5-0.2h14.9c0.4,0,0.7,0.3,0.7,0.6c0,0,0,0,0,0.1v3c0,0.4-0.3,0.7-0.6,0.7
				c0,0,0,0-0.1,0h-4.9v14.3c0,0.2-0.1,0.4-0.2,0.5c-0.1,0.1-0.3,0.2-0.5,0.2h-3.7C60.6-61.6,60.5-61.6,60.3-61.8z"/>
			<path id="Path_7" class="st0" d="M73.5-61.8c-0.1-0.1-0.2-0.3-0.2-0.5v-18c0-0.2,0.1-0.4,0.2-0.5c0.1-0.1,0.3-0.2,0.5-0.2h12.9
				c0.4,0,0.7,0.3,0.7,0.6c0,0,0,0,0,0.1v2.6c0,0.2-0.1,0.4-0.2,0.5C87.3-77,87.1-77,86.9-77h-8.8v3.7h8.2c0.2,0,0.4,0.1,0.5,0.2
				c0.1,0.1,0.2,0.3,0.2,0.5v2.4c0,0.2-0.1,0.4-0.2,0.5c-0.1,0.1-0.3,0.2-0.5,0.2h-8.2v3.8h9.1c0.4,0,0.7,0.3,0.7,0.6c0,0,0,0,0,0.1
				v2.6c0,0.2-0.1,0.4-0.2,0.5c-0.1,0.1-0.3,0.2-0.5,0.2H74C73.8-61.6,73.7-61.6,73.5-61.8z"/>
			<path id="Path_8" class="st0" d="M89.5-61.7c-0.1-0.1-0.2-0.2-0.2-0.4c0-0.1,0-0.2,0-0.2l6.5-17.8c0.1-0.2,0.2-0.4,0.4-0.6
				c0.2-0.2,0.5-0.2,0.7-0.2h4.1c0.3,0,0.5,0.1,0.7,0.2c0.2,0.1,0.3,0.3,0.4,0.6l6.5,17.8l0.1,0.2c0,0.2-0.1,0.3-0.2,0.4
				c-0.1,0.1-0.3,0.2-0.4,0.2h-3.4c-0.4,0-0.8-0.2-0.9-0.6l-1.1-2.8h-7.4l-1,2.8c-0.1,0.4-0.5,0.6-0.9,0.6h-3.4
				C89.7-61.6,89.6-61.6,89.5-61.7z M101.5-69L99-76.3L96.4-69H101.5z"/>
			<path id="Path_9" class="st0" d="M112.4-63.2c-1.6-1.5-2.4-3.6-2.2-5.8v-11.3c0-0.2,0.1-0.4,0.2-0.5c0.1-0.1,0.3-0.2,0.5-0.2h3.6
				c0.2,0,0.4,0.1,0.5,0.2c0.1,0.1,0.2,0.3,0.2,0.5V-69c-0.1,1,0.2,1.9,0.8,2.7c1.4,1.2,3.5,1.2,4.9,0c0.6-0.7,0.9-1.7,0.9-2.7
				v-11.3c0-0.2,0.1-0.4,0.2-0.5c0.1-0.1,0.3-0.2,0.5-0.2h3.6c0.4,0,0.7,0.3,0.7,0.6c0,0,0,0,0,0.1V-69c0.2,2.2-0.6,4.3-2.2,5.8
				C120.9-60.7,116.1-60.7,112.4-63.2L112.4-63.2z"/>
		</g>
		<g id="Group_3" transform="translate(0 21.466)">
			<path id="Path_11" class="st0" d="M2.9-68.3c-0.1-0.1-0.1-0.2-0.1-0.3v-9.6c0-0.1,0-0.2,0.1-0.3c0.1-0.1,0.2-0.1,0.3-0.1H7
				c1.2-0.1,2.4,0.3,3.4,1c0.8,0.8,1.3,1.9,1.3,3c0,0.3,0,0.7,0,1.1s0,0.8,0,1.1c0,1.1-0.4,2.2-1.2,3c-1,0.7-2.1,1.1-3.3,1H3.1
				C3-68.2,2.9-68.2,2.9-68.3z M7-70.3c0.5,0,1-0.1,1.4-0.5c0.3-0.4,0.5-0.9,0.5-1.5c0-0.3,0-0.7,0-1.1s0-0.8,0-1.1
				c0-0.5-0.2-1.1-0.5-1.5c-0.4-0.3-0.9-0.5-1.5-0.5H5.4v6.1H7z"/>
			<path id="Path_12" class="st0" d="M13.4-68.3c-0.1-0.1-0.1-0.2-0.1-0.3v-9.6c0-0.1,0-0.2,0.1-0.3c0.1-0.1,0.2-0.1,0.3-0.1h4
				c1.1-0.1,2.1,0.2,3,0.9c0.7,0.6,1.1,1.5,1.1,2.5c0,0.6-0.1,1.2-0.5,1.8c-0.3,0.5-0.8,0.9-1.3,1.1l2,3.6c0,0,0,0.1,0,0.2
				c0,0.1,0,0.2-0.1,0.2c-0.1,0.1-0.1,0.1-0.2,0.1h-2c-0.3,0-0.5-0.1-0.6-0.4l-1.7-3.2h-1.5v3.3c0,0.1,0,0.2-0.1,0.3
				c-0.1,0.1-0.2,0.1-0.3,0.1h-1.9C13.6-68.2,13.5-68.2,13.4-68.3z M17.6-73.9c0.4,0,0.7-0.1,1-0.3c0.2-0.2,0.4-0.6,0.4-0.9
				c0-0.3-0.1-0.7-0.3-0.9c-0.3-0.2-0.7-0.4-1-0.3H16v2.5H17.6z"/>
			<path id="Path_13" class="st0" d="M23.6-68.3c-0.1-0.1-0.1-0.2-0.1-0.3v-9.6c0-0.1,0-0.2,0.1-0.3c0.1-0.1,0.2-0.1,0.3-0.1h2
				c0.1,0,0.2,0,0.3,0.1c0.1,0.1,0.1,0.2,0.1,0.3v9.6c0,0.1,0,0.2-0.1,0.3c-0.1,0.1-0.2,0.1-0.3,0.1h-2
				C23.7-68.2,23.7-68.2,23.6-68.3z"/>
			<path id="Path_14" class="st0" d="M30.6-68.6l-3-9.4l0-0.1c0-0.1,0-0.2,0.1-0.2c0.1-0.1,0.1-0.1,0.2-0.1h1.8c0.1,0,0.2,0,0.3,0.1
				c0.1,0.1,0.1,0.2,0.2,0.3l2.1,6.8l2.1-6.8c0-0.1,0.1-0.2,0.2-0.3c0.1-0.1,0.2-0.1,0.3-0.1h1.8c0.1,0,0.2,0,0.2,0.1
				s0.1,0.1,0.1,0.2l0,0.1l-3,9.4c-0.1,0.3-0.3,0.5-0.6,0.4h-2.3C30.9-68.2,30.7-68.4,30.6-68.6z"/>
			<path id="Path_15" class="st0" d="M38.6-68.3c-0.1-0.1-0.1-0.2-0.1-0.3v-9.6c0-0.1,0-0.2,0.1-0.3c0.1-0.1,0.2-0.1,0.3-0.1h2
				c0.1,0,0.2,0,0.3,0.1c0.1,0.1,0.1,0.2,0.1,0.3v9.6c0,0.1,0,0.2-0.1,0.3c-0.1,0.1-0.2,0.1-0.3,0.1h-2
				C38.7-68.2,38.6-68.2,38.6-68.3z"/>
			<path id="Path_16" class="st0" d="M43.3-68.3c-0.1-0.1-0.1-0.2-0.1-0.3v-9.6c0-0.1,0-0.2,0.1-0.3c0.1-0.1,0.2-0.1,0.3-0.1h1.6
				c0.2,0,0.4,0.1,0.5,0.3l3.6,5.7v-5.6c0-0.1,0-0.2,0.1-0.3c0.1-0.1,0.2-0.1,0.3-0.1h1.8c0.2,0,0.4,0.1,0.4,0.3c0,0,0,0,0,0v9.6
				c0,0.1,0,0.2-0.1,0.3c-0.1,0.1-0.2,0.1-0.3,0.1h-1.6c-0.2,0-0.4-0.1-0.5-0.3l-3.6-5.4v5.4c0,0.1,0,0.2-0.1,0.3
				c-0.1,0.1-0.2,0.1-0.3,0.1h-1.8C43.5-68.2,43.4-68.2,43.3-68.3z"/>
			<path id="Path_17" class="st0" d="M54.8-69.1c-0.8-0.8-1.3-1.8-1.3-3c0-0.3,0-0.7,0-1.4s0-1.1,0-1.4c0-1.1,0.5-2.2,1.3-2.9
				c0.9-0.7,2.1-1.1,3.3-1c0.8,0,1.7,0.1,2.4,0.5c0.6,0.2,1.2,0.6,1.6,1.2c0.3,0.4,0.5,0.9,0.6,1.5c0,0.1,0,0.2-0.1,0.2
				c-0.1,0.1-0.1,0.1-0.2,0.1h-2.1c-0.1,0-0.2,0-0.2,0c-0.1,0-0.1-0.1-0.1-0.2c-0.1-0.3-0.3-0.5-0.6-0.7c-0.3-0.2-0.7-0.3-1.2-0.3
				c-1.2,0-1.8,0.6-1.8,1.9c0,0.3,0,0.7,0,1.3c0,0.6,0,1,0,1.3c0.1,1.3,0.7,1.9,1.9,1.9c0.5,0,1-0.1,1.4-0.4
				c0.4-0.4,0.6-0.9,0.5-1.4v-0.3h-1.4c-0.1,0-0.2,0-0.3-0.1c-0.1-0.1-0.1-0.2-0.1-0.3v-1.1c0-0.1,0-0.2,0.1-0.3
				c0.1-0.1,0.2-0.1,0.3-0.1h3.7c0.1,0,0.2,0,0.3,0.1c0.1,0.1,0.1,0.2,0.1,0.3v1.7c0,0.8-0.2,1.5-0.6,2.2c-0.4,0.6-1,1.1-1.6,1.4
				c-0.8,0.3-1.6,0.5-2.5,0.5C56.9-68,55.7-68.3,54.8-69.1z"/>
			<path id="Path_18" class="st0" d="M69-68.5c-0.6-0.2-1.1-0.6-1.5-1.1C67.2-70,67-70.5,67-71c0-0.1,0-0.2,0.1-0.2
				c0.1-0.1,0.1-0.1,0.2-0.1h1.9c0.1,0,0.2,0,0.3,0.1c0.1,0.1,0.2,0.1,0.2,0.2c0.1,0.3,0.4,0.5,0.6,0.6c0.3,0.2,0.7,0.3,1.1,0.2
				c0.4,0,0.9-0.1,1.3-0.3c0.3-0.1,0.4-0.4,0.4-0.7c0-0.2-0.1-0.4-0.2-0.5c-0.2-0.2-0.5-0.3-0.7-0.4c-0.5-0.1-1-0.3-1.4-0.4
				c-1-0.1-1.9-0.5-2.6-1.1c-0.6-0.5-0.9-1.3-0.9-2c0-0.6,0.2-1.1,0.5-1.6c0.4-0.5,0.9-0.9,1.4-1.1c0.7-0.3,1.4-0.4,2.2-0.4
				c0.8,0,1.5,0.1,2.2,0.4c0.6,0.2,1.1,0.6,1.4,1.1c0.3,0.4,0.5,0.8,0.5,1.3c0,0.2-0.1,0.3-0.3,0.3c0,0,0,0,0,0h-1.9
				c-0.1,0-0.2,0-0.3-0.1c-0.1,0-0.1-0.1-0.2-0.2c-0.1-0.2-0.2-0.5-0.5-0.6c-0.6-0.3-1.4-0.3-2,0c-0.2,0.2-0.4,0.4-0.4,0.7
				c0,0.2,0.1,0.4,0.2,0.5c0.2,0.2,0.4,0.3,0.6,0.4c0.4,0.1,0.8,0.3,1.3,0.3c0.7,0.1,1.5,0.3,2.2,0.6c1.4,0.7,2,2.3,1.3,3.7
				c-0.1,0.2-0.2,0.3-0.3,0.5c-0.4,0.5-1,0.9-1.6,1.1C72.2-67.9,70.5-67.9,69-68.5L69-68.5z"/>
			<path id="Path_19" class="st0" d="M78.3-69.1c-0.8-0.8-1.3-1.8-1.3-3c0-0.3,0-0.7,0-1.3c0-0.6,0-1.1,0-1.3c0-1.1,0.4-2.2,1.3-3
				c0.9-0.7,2.1-1.1,3.3-1c0.8,0,1.6,0.1,2.3,0.4c0.6,0.3,1.2,0.7,1.6,1.2c0.4,0.5,0.6,1.2,0.6,1.9v0c0,0.1,0,0.2-0.1,0.2
				c-0.1,0.1-0.1,0.1-0.2,0.1h-2c-0.1,0-0.2,0-0.3-0.1c-0.1-0.1-0.1-0.2-0.2-0.3c-0.1-0.4-0.3-0.8-0.6-1.1c-0.3-0.2-0.8-0.3-1.2-0.3
				c-1.2,0-1.8,0.6-1.8,1.9c0,0.3,0,0.7,0,1.2c0,0.5,0,1,0,1.3c0,1.3,0.6,1.9,1.8,1.9c0.4,0,0.8-0.1,1.2-0.3c0.3-0.3,0.6-0.6,0.6-1
				c0-0.1,0.1-0.2,0.2-0.3c0.1-0.1,0.2-0.1,0.3-0.1h2c0.1,0,0.2,0,0.2,0.1s0.1,0.1,0.1,0.2c0,0.7-0.2,1.3-0.6,1.9
				c-0.4,0.5-1,1-1.6,1.2c-0.7,0.3-1.5,0.4-2.3,0.4C80.4-68,79.2-68.3,78.3-69.1z"/>
			<path id="Path_20" class="st0" d="M87.8-68.3c-0.1-0.1-0.1-0.2-0.1-0.3v-9.6c0-0.1,0-0.2,0.1-0.3c0.1-0.1,0.2-0.1,0.3-0.1h1.9
				c0.1,0,0.2,0,0.3,0.1c0.1,0.1,0.1,0.2,0.1,0.3v3.6h3.6v-3.6c0-0.2,0.1-0.4,0.3-0.4c0,0,0,0,0,0h1.9c0.2,0,0.4,0.1,0.4,0.3
				c0,0,0,0,0,0v9.6c0,0.2-0.1,0.4-0.3,0.4c0,0,0,0,0,0h-1.9c-0.2,0-0.4-0.1-0.4-0.3c0,0,0,0,0,0v-3.7h-3.6v3.7c0,0.1,0,0.2-0.1,0.3
				c-0.1,0.1-0.2,0.1-0.3,0.1H88C87.9-68.2,87.8-68.2,87.8-68.3z"/>
			<path id="Path_21" class="st0" d="M99.6-69.1c-0.8-0.8-1.3-1.9-1.3-3c0-0.3,0-0.7,0-1.3c0-0.6,0-1,0-1.3c0-1.1,0.4-2.2,1.3-3
				c1.9-1.4,4.6-1.4,6.5,0c0.8,0.8,1.3,1.9,1.3,3c0,0.6,0,1,0,1.3c0,0.3,0,0.7,0,1.3c0,1.1-0.4,2.2-1.3,3
				C104.1-67.7,101.5-67.7,99.6-69.1L99.6-69.1z M104.1-70.7c0.4-0.4,0.5-0.9,0.5-1.5c0-0.6,0-1,0-1.2c0-0.3,0-0.7,0-1.2
				c0-0.5-0.2-1.1-0.5-1.5c-0.3-0.3-0.8-0.5-1.3-0.5c-0.5,0-0.9,0.2-1.3,0.5c-0.4,0.4-0.5,0.9-0.5,1.5c0,0.3,0,0.7,0,1.2
				c0,0.5,0,0.9,0,1.2c0,0.5,0.2,1.1,0.5,1.5c0.3,0.3,0.8,0.5,1.3,0.5C103.3-70.1,103.8-70.3,104.1-70.7L104.1-70.7z"/>
			<path id="Path_22" class="st0" d="M110.1-69.1c-0.8-0.8-1.3-1.9-1.3-3c0-0.3,0-0.7,0-1.3c0-0.6,0-1,0-1.3c0-1.1,0.4-2.2,1.3-3
				c1.9-1.4,4.6-1.4,6.5,0c0.8,0.8,1.3,1.9,1.3,3c0,0.6,0,1,0,1.3c0,0.3,0,0.7,0,1.3c0,1.1-0.4,2.2-1.3,3
				C114.6-67.7,112-67.7,110.1-69.1L110.1-69.1z M114.6-70.7c0.4-0.4,0.5-0.9,0.5-1.5c0-0.6,0-1,0-1.2c0-0.3,0-0.7,0-1.2
				c0-0.5-0.2-1.1-0.5-1.5c-0.3-0.3-0.8-0.5-1.3-0.5c-0.5,0-0.9,0.2-1.3,0.5c-0.4,0.4-0.5,0.9-0.5,1.5c0,0.3,0,0.7,0,1.2
				c0,0.5,0,0.9,0,1.2c0,0.5,0.2,1.1,0.5,1.5c0.3,0.3,0.8,0.5,1.3,0.5C113.8-70.1,114.3-70.3,114.6-70.7L114.6-70.7z"/>
			<path id="Path_23" class="st0" d="M119.7-68.3c-0.1-0.1-0.1-0.2-0.1-0.3v-9.6c0-0.1,0-0.2,0.1-0.3c0.1-0.1,0.2-0.1,0.3-0.1h1.9
				c0.2,0,0.4,0.1,0.4,0.3c0,0,0,0,0,0v7.7h4.5c0.1,0,0.2,0,0.3,0.1c0.1,0.1,0.1,0.2,0.1,0.3v1.5c0,0.1,0,0.2-0.1,0.3
				c-0.1,0.1-0.2,0.1-0.3,0.1H120C119.9-68.2,119.8-68.2,119.7-68.3z"/>
		</g>
	</g>
</g>
</svg>
