<?xml version="1.0" encoding="utf-8"?>
<!-- Generator: Adobe Illustrator 24.1.1, SVG Export Plug-In . SVG Version: 6.00 Build 0)  -->
<svg version="1.1" id="Layer_1" xmlns="http://www.w3.org/2000/svg" xmlns:xlink="http://www.w3.org/1999/xlink" x="0px" y="0px"
	 viewBox="0 0 114.47 67.94" style="enable-background:new 0 0 114.47 67.94;" xml:space="preserve">
<style type="text/css">
	.st0{fill:#FFFFFF;}
</style>
<g id="Group_1" transform="translate(38.331 125.906)">
	<g id="Group_32" transform="translate(0 0)">
		<path id="Path_1" class="st0" d="M70.21-65.85c8.17-9.34,7.87-23.37-0.69-32.35c-0.1-0.1-0.19-0.2-0.29-0.3l-27.14-27.4
			l-20.06,20.26l11.82,11.93c0.07-0.09,0.14-0.17,0.23-0.25l6.25-6.32c1.26-1.24,3.29-1.23,4.53,0.03c0.01,0.01,0.02,0.02,0.03,0.03
			l11.46,11.57l1.26-1.93c0,0,1.3,0.72-0.45,2.75l3.14,3.17c1.88,1.85,1.92,4.87,0.09,6.77l-4.14,4.18
			c-1.86,1.82-4.84,1.8-6.66-0.06c-0.01-0.01-0.03-0.03-0.04-0.04l-3.15-3.19c-1.85,1.5-2.51,0.28-2.51,0.28l1.68-1.12L34.14-89.36
			c-0.1-0.1-0.19-0.2-0.27-0.31l-26.64-26.9l-45.56,46h22.6L7.19-93.71l5.6,5.65l0.01-0.01l8.51,8.59l14.18,14.32
			C45.15-55.39,61.13-55.52,70.21-65.85z"/>
		<path id="Path_2" class="st0" d="M19.85-78.58L7.44-91l-20.64,20.64h24.83L19.85-78.58z"/>
	</g>
</g>
</svg>
