<?xml version="1.0" encoding="utf-8"?>
<!-- Generator: Adobe Illustrator 24.1.1, SVG Export Plug-In . SVG Version: 6.00 Build 0)  -->
<svg version="1.1" id="Layer_1" xmlns="http://www.w3.org/2000/svg" xmlns:xlink="http://www.w3.org/1999/xlink" x="0px" y="0px"
	 viewBox="0 0 160.48 35.2" style="enable-background:new 0 0 160.48 35.2;" xml:space="preserve">
<style type="text/css">
	.st0{fill:#FFFFFF;}
</style>
<g id="Group_38" transform="translate(-36 -125.906)">
	<g id="Group_4" transform="translate(36 207.269)">
		<g id="Group_2" transform="translate(0.324 0)">
			<path id="Path_3" class="st0" d="M-0.32-63.63c-0.12-0.12-0.19-0.28-0.19-0.45v-16.65c-0.01-0.17,0.06-0.34,0.19-0.46
				c0.12-0.12,0.28-0.18,0.45-0.18H7.3c1.84-0.1,3.67,0.43,5.16,1.51c1.29,1.09,1.99,2.72,1.88,4.4c0.11,1.66-0.58,3.27-1.87,4.32
				c-1.52,1.05-3.34,1.55-5.17,1.45H4.25v5.61c0.01,0.17-0.06,0.34-0.19,0.46c-0.13,0.12-0.3,0.18-0.47,0.18H0.12
				C-0.05-63.44-0.21-63.51-0.32-63.63z M7.17-73.22c0.64,0.04,1.27-0.17,1.77-0.58c0.45-0.45,0.68-1.07,0.64-1.7
				c0.03-0.62-0.18-1.22-0.6-1.68c-0.49-0.45-1.14-0.68-1.81-0.63h-3v4.58L7.17-73.22z"/>
			<path id="Path_4" class="st0" d="M16.99-63.63c-0.12-0.12-0.19-0.28-0.19-0.45v-16.65c-0.01-0.17,0.06-0.34,0.19-0.46
				c0.12-0.12,0.28-0.18,0.45-0.18h3.38c0.17-0.01,0.34,0.06,0.46,0.18c0.12,0.12,0.19,0.29,0.18,0.46v13.42h7.76
				c0.17-0.01,0.34,0.06,0.46,0.19c0.12,0.13,0.18,0.3,0.18,0.47v2.56c0,0.17-0.06,0.33-0.18,0.45c-0.12,0.13-0.29,0.2-0.46,0.19
				H17.44C17.27-63.44,17.11-63.51,16.99-63.63z"/>
			<path id="Path_5" class="st0" d="M30.69-63.6c-0.1-0.1-0.16-0.23-0.17-0.37c0-0.08,0.01-0.16,0.03-0.23l6.02-16.44
				c0.05-0.2,0.17-0.38,0.33-0.51c0.19-0.14,0.43-0.21,0.67-0.2h3.79c0.24-0.01,0.47,0.06,0.67,0.2c0.17,0.13,0.28,0.31,0.33,0.51
				l5.99,16.45l0.05,0.23c0,0.14-0.06,0.28-0.17,0.37c-0.1,0.11-0.25,0.17-0.4,0.17h-3.15c-0.36,0.03-0.7-0.19-0.82-0.54l-1-2.61
				h-6.84l-0.97,2.61c-0.13,0.35-0.47,0.57-0.85,0.54h-3.15C30.92-63.44,30.79-63.5,30.69-63.6z M41.85-70.28l-2.38-6.76l-2.38,6.76
				H41.85z"/>
			<path id="Path_6" class="st0" d="M52.77-63.63c-0.12-0.12-0.19-0.28-0.19-0.45v-13.27h-4.56c-0.35-0.01-0.63-0.29-0.64-0.64
				v-2.74c-0.01-0.17,0.06-0.34,0.19-0.46c0.12-0.12,0.28-0.18,0.45-0.18h13.78c0.34-0.01,0.63,0.25,0.64,0.59c0,0.02,0,0.04,0,0.05
				v2.74c0.01,0.34-0.25,0.63-0.59,0.64c-0.02,0-0.04,0-0.05,0h-4.56v13.27c0,0.17-0.06,0.33-0.18,0.45
				c-0.12,0.13-0.29,0.2-0.46,0.19h-3.38C53.05-63.44,52.88-63.51,52.77-63.63z"/>
			<path id="Path_7" class="st0" d="M64.96-63.63c-0.12-0.12-0.19-0.28-0.19-0.45v-16.65c-0.01-0.17,0.06-0.34,0.19-0.46
				c0.12-0.12,0.28-0.18,0.45-0.18h11.96c0.34-0.01,0.63,0.25,0.64,0.59c0,0.02,0,0.04,0,0.05v2.41c0,0.17-0.06,0.33-0.18,0.45
				c-0.12,0.13-0.29,0.2-0.46,0.19H69.2v3.46h7.61c0.17-0.01,0.34,0.06,0.46,0.19c0.12,0.13,0.18,0.3,0.18,0.47v2.23
				c0,0.17-0.06,0.33-0.18,0.45c-0.12,0.13-0.29,0.2-0.46,0.19H69.2v3.56h8.38c0.34-0.01,0.63,0.25,0.64,0.59c0,0.02,0,0.04,0,0.05
				v2.41c0,0.17-0.06,0.33-0.18,0.45c-0.12,0.13-0.29,0.2-0.46,0.19H65.41C65.24-63.44,65.08-63.51,64.96-63.63z"/>
			<path id="Path_8" class="st0" d="M79.74-63.6c-0.1-0.1-0.16-0.23-0.17-0.37c0-0.08,0.01-0.16,0.03-0.23l6.02-16.44
				c0.05-0.2,0.17-0.38,0.33-0.51c0.19-0.14,0.43-0.21,0.67-0.2h3.79c0.24-0.01,0.47,0.06,0.67,0.2c0.17,0.13,0.28,0.31,0.33,0.51
				l5.99,16.44l0.05,0.23c0,0.14-0.06,0.28-0.17,0.37c-0.1,0.11-0.25,0.17-0.4,0.17h-3.15c-0.36,0.03-0.7-0.19-0.82-0.54l-1-2.61
				h-6.84l-0.97,2.61c-0.13,0.35-0.47,0.57-0.85,0.54h-3.15C79.97-63.44,79.83-63.5,79.74-63.6z M90.89-70.28l-2.38-6.76l-2.38,6.76
				H90.89z"/>
			<path id="Path_9" class="st0" d="M100.97-64.95c-1.44-1.38-2.19-3.34-2.04-5.33v-10.45c-0.01-0.17,0.06-0.34,0.19-0.46
				c0.12-0.12,0.28-0.18,0.45-0.18h3.3c0.18,0,0.35,0.06,0.47,0.18c0.13,0.12,0.2,0.29,0.19,0.46v10.43c-0.07,0.9,0.21,1.8,0.78,2.5
				c1.3,1.11,3.22,1.11,4.52-0.01c0.57-0.69,0.86-1.58,0.79-2.48v-10.43c-0.01-0.17,0.06-0.34,0.19-0.46
				c0.12-0.12,0.28-0.18,0.45-0.18h3.33c0.34-0.01,0.63,0.25,0.64,0.59c0,0.02,0,0.04,0,0.05v10.45c0.15,1.99-0.59,3.95-2.04,5.33
				C108.83-62.59,104.34-62.59,100.97-64.95L100.97-64.95z"/>
			<path id="Path_10" class="st0" d="M116.21-63.6c-0.1-0.1-0.17-0.23-0.17-0.37c0-0.11,0.03-0.22,0.1-0.31l5.58-8.3l-5.17-7.94
				c-0.05-0.09-0.08-0.2-0.08-0.31c0-0.14,0.06-0.27,0.15-0.37c0.1-0.11,0.24-0.17,0.38-0.17h3.71c0.18-0.01,0.36,0.05,0.51,0.15
				c0.14,0.11,0.27,0.24,0.38,0.38l3.05,4.64l3.1-4.64c0.18-0.33,0.52-0.54,0.9-0.54h3.54c0.29,0.02,0.52,0.25,0.54,0.54
				c0,0.11-0.03,0.22-0.1,0.31l-5.2,7.91l5.64,8.32c0.06,0.09,0.08,0.2,0.08,0.31c0,0.14-0.06,0.27-0.15,0.37
				c-0.1,0.11-0.24,0.17-0.38,0.17h-3.82c-0.37,0-0.71-0.2-0.9-0.51l-3.38-4.92l-3.35,4.92c-0.16,0.33-0.51,0.53-0.87,0.51h-3.69
				C116.46-63.44,116.31-63.5,116.21-63.6z"/>
		</g>
		<g id="Group_3" transform="translate(0 21.466)">
			<path id="Path_11" class="st0" d="M-0.37-67.97c-0.09-0.09-0.14-0.21-0.14-0.33V-80.7c0-0.13,0.05-0.25,0.14-0.34
				c0.09-0.09,0.21-0.13,0.33-0.13h4.96c1.56-0.1,3.11,0.38,4.35,1.33c1.08,0.99,1.67,2.41,1.62,3.87c0.01,0.37,0.02,0.86,0.02,1.47
				c0,0.61-0.01,1.09-0.02,1.45c0.06,1.48-0.51,2.91-1.57,3.94c-1.23,0.94-2.76,1.39-4.3,1.29h-5.05
				C-0.17-67.83-0.29-67.88-0.37-67.97z M4.92-70.57c0.67,0.06,1.34-0.16,1.85-0.6c0.44-0.54,0.67-1.22,0.63-1.92
				c0.03-0.37,0.04-0.85,0.04-1.43s-0.01-1.05-0.04-1.41c0.03-0.69-0.21-1.37-0.68-1.89c-0.53-0.44-1.21-0.66-1.9-0.61H2.91v7.86
				L4.92-70.57z"/>
			<path id="Path_12" class="st0" d="M13.28-67.97c-0.09-0.09-0.14-0.21-0.14-0.33V-80.7c0-0.13,0.05-0.25,0.14-0.34
				c0.09-0.09,0.21-0.13,0.33-0.13h5.19c1.39-0.08,2.77,0.32,3.9,1.13c0.95,0.79,1.47,1.98,1.4,3.21c0.02,0.8-0.19,1.59-0.63,2.27
				c-0.43,0.63-1.03,1.13-1.74,1.43l2.61,4.69c0.03,0.06,0.05,0.14,0.06,0.21c0,0.11-0.05,0.2-0.12,0.28
				c-0.07,0.08-0.17,0.12-0.28,0.12h-2.54c-0.34,0.01-0.66-0.19-0.78-0.52l-2.17-4.2h-1.95v4.23c0,0.13-0.05,0.25-0.14,0.34
				c-0.1,0.09-0.22,0.14-0.35,0.13h-2.46C13.49-67.83,13.37-67.88,13.28-67.97z M18.76-75.25c0.48,0.03,0.96-0.12,1.34-0.43
				c0.32-0.31,0.48-0.75,0.46-1.19c0.02-0.45-0.14-0.89-0.45-1.21c-0.37-0.32-0.85-0.49-1.34-0.45h-2.19v3.28L18.76-75.25z"/>
			<path id="Path_13" class="st0" d="M26.45-67.97c-0.09-0.09-0.14-0.21-0.14-0.33V-80.7c0-0.13,0.05-0.25,0.14-0.34
				c0.09-0.09,0.21-0.13,0.33-0.13h2.56c0.13,0,0.26,0.04,0.35,0.13c0.09,0.09,0.15,0.21,0.14,0.34v12.39
				c0,0.13-0.05,0.25-0.14,0.34c-0.1,0.09-0.22,0.14-0.35,0.13h-2.56C26.66-67.83,26.54-67.88,26.45-67.97z"/>
			<path id="Path_14" class="st0" d="M35.52-68.4l-3.89-12.2l-0.04-0.17c0-0.11,0.05-0.2,0.12-0.28c0.08-0.08,0.19-0.13,0.3-0.12
				h2.36c0.16-0.01,0.32,0.05,0.45,0.15c0.11,0.09,0.19,0.21,0.24,0.34l2.71,8.81l2.69-8.81c0.04-0.14,0.13-0.25,0.24-0.34
				c0.13-0.1,0.29-0.16,0.45-0.15h2.38c0.11,0,0.2,0.05,0.28,0.12c0.08,0.07,0.12,0.17,0.12,0.28l-0.04,0.17L40-68.4
				c-0.08,0.36-0.42,0.6-0.78,0.57H36.3C35.94-67.8,35.6-68.04,35.52-68.4z"/>
			<path id="Path_15" class="st0" d="M45.84-67.97c-0.09-0.09-0.14-0.21-0.14-0.33V-80.7c0-0.13,0.05-0.25,0.14-0.34
				c0.09-0.09,0.21-0.13,0.33-0.13h2.56c0.13,0,0.26,0.04,0.35,0.13c0.09,0.09,0.15,0.21,0.14,0.34v12.39
				c0,0.13-0.05,0.25-0.14,0.34c-0.1,0.09-0.22,0.14-0.35,0.13h-2.56C46.05-67.83,45.93-67.88,45.84-67.97z"/>
			<path id="Path_16" class="st0" d="M52.02-67.97c-0.09-0.09-0.14-0.21-0.14-0.33V-80.7c0-0.13,0.05-0.25,0.14-0.34
				c0.09-0.09,0.21-0.13,0.33-0.13h2.02c0.27-0.03,0.53,0.12,0.65,0.36l4.65,7.32v-7.21c0-0.13,0.05-0.25,0.14-0.34
				c0.09-0.09,0.21-0.13,0.33-0.13h2.29c0.25-0.01,0.47,0.18,0.48,0.44c0,0.01,0,0.03,0,0.04v12.38c0,0.13-0.04,0.26-0.13,0.35
				c-0.09,0.09-0.21,0.15-0.34,0.14h-2.04c-0.26,0.01-0.51-0.13-0.63-0.36l-4.65-7.05v6.94c0,0.12-0.05,0.24-0.13,0.33
				c-0.09,0.09-0.21,0.15-0.34,0.14h-2.29C52.23-67.83,52.11-67.88,52.02-67.97z"/>
			<path id="Path_17" class="st0" d="M66.81-68.98c-1.07-0.98-1.67-2.37-1.64-3.82c-0.01-0.37-0.02-0.95-0.02-1.75
				c0-0.8,0.01-1.39,0.02-1.75c-0.02-1.43,0.59-2.8,1.67-3.74c1.22-0.93,2.73-1.4,4.26-1.32c1.08-0.02,2.16,0.18,3.15,0.59
				c0.8,0.32,1.51,0.84,2.06,1.51c0.45,0.53,0.71,1.19,0.75,1.89c0,0.11-0.04,0.21-0.12,0.29c-0.08,0.08-0.19,0.12-0.3,0.11h-2.78
				c-0.1,0-0.21-0.02-0.3-0.06c-0.08-0.05-0.15-0.12-0.19-0.21c-0.18-0.38-0.44-0.71-0.78-0.96c-0.44-0.3-0.96-0.44-1.49-0.41
				c-1.51,0-2.31,0.8-2.38,2.4c-0.01,0.36-0.02,0.91-0.02,1.66c0,0.74,0.01,1.29,0.02,1.66c0.08,1.68,0.89,2.52,2.44,2.52
				c0.65,0.03,1.29-0.17,1.8-0.58c0.48-0.46,0.73-1.12,0.68-1.78v-0.36h-1.79c-0.13,0-0.25-0.05-0.34-0.14
				c-0.09-0.1-0.14-0.22-0.13-0.35v-1.41c0-0.13,0.04-0.26,0.13-0.35c0.09-0.1,0.21-0.15,0.34-0.14h4.8c0.13,0,0.25,0.05,0.34,0.14
				c0.09,0.1,0.14,0.22,0.13,0.35v2.17c0.03,0.98-0.23,1.95-0.74,2.79c-0.51,0.79-1.24,1.42-2.11,1.79c-1,0.43-2.08,0.64-3.18,0.62
				C69.54-67.55,68.02-68.03,66.81-68.98z"/>
			<path id="Path_18" class="st0" d="M85.25-68.17c-0.77-0.28-1.44-0.77-1.95-1.4c-0.43-0.54-0.67-1.21-0.7-1.9
				c0-0.11,0.05-0.21,0.12-0.28c0.08-0.08,0.19-0.13,0.3-0.12h2.4c0.13-0.01,0.26,0.02,0.37,0.09c0.11,0.07,0.21,0.16,0.3,0.26
				c0.18,0.35,0.46,0.63,0.8,0.82c0.45,0.24,0.96,0.35,1.47,0.32c0.57,0.03,1.15-0.08,1.66-0.34c0.35-0.18,0.57-0.54,0.57-0.93
				c0.01-0.26-0.1-0.51-0.3-0.69c-0.27-0.22-0.59-0.38-0.92-0.48c-0.61-0.19-1.24-0.35-1.87-0.48c-1.23-0.19-2.41-0.67-3.42-1.4
				c-0.77-0.65-1.19-1.63-1.14-2.64c-0.01-0.74,0.22-1.47,0.65-2.08c0.47-0.64,1.11-1.14,1.85-1.43c0.89-0.36,1.84-0.53,2.8-0.52
				c0.99-0.02,1.97,0.17,2.88,0.57c0.73,0.32,1.37,0.81,1.86,1.44c0.39,0.49,0.63,1.08,0.68,1.71c0.01,0.22-0.17,0.39-0.38,0.4
				c-0.01,0-0.01,0-0.02,0h-2.52c-0.13,0.01-0.26-0.02-0.37-0.08c-0.11-0.06-0.19-0.15-0.26-0.25c-0.1-0.32-0.32-0.59-0.62-0.74
				c-0.81-0.41-1.76-0.41-2.57,0c-0.3,0.2-0.48,0.54-0.46,0.9c-0.01,0.25,0.09,0.49,0.26,0.67c0.24,0.22,0.53,0.39,0.84,0.49
				c0.54,0.19,1.1,0.34,1.67,0.45c0.97,0.15,1.92,0.43,2.83,0.81c1.79,0.85,2.55,2.99,1.71,4.78c-0.11,0.23-0.24,0.44-0.39,0.64
				c-0.53,0.66-1.24,1.16-2.04,1.45C89.36-67.46,87.21-67.47,85.25-68.17L85.25-68.17z"/>
			<path id="Path_19" class="st0" d="M97.23-68.96c-1.07-0.99-1.66-2.39-1.63-3.84c-0.01-0.34-0.02-0.9-0.02-1.68
				c0-0.79,0.01-1.36,0.02-1.72c-0.02-1.45,0.58-2.85,1.66-3.82c1.2-0.95,2.71-1.43,4.23-1.34c1.03-0.02,2.06,0.17,3.01,0.56
				c0.83,0.33,1.56,0.89,2.11,1.6c0.52,0.7,0.8,1.56,0.79,2.43v0.04c0,0.1-0.04,0.2-0.12,0.26c-0.08,0.07-0.17,0.1-0.28,0.1h-2.57
				c-0.13,0.01-0.27-0.03-0.38-0.1c-0.11-0.11-0.19-0.24-0.23-0.39c-0.11-0.54-0.41-1.02-0.84-1.36c-0.45-0.28-0.98-0.42-1.51-0.39
				c-1.5,0-2.28,0.84-2.33,2.52c-0.01,0.34-0.02,0.87-0.02,1.58c0,0.71,0.01,1.25,0.02,1.62c0.05,1.68,0.83,2.52,2.33,2.52
				c0.54,0.02,1.07-0.12,1.52-0.41c0.43-0.33,0.72-0.81,0.82-1.34c0.03-0.15,0.1-0.29,0.21-0.39c0.12-0.08,0.26-0.11,0.4-0.1H107
				c0.11,0,0.22,0.04,0.3,0.11c0.08,0.07,0.12,0.18,0.1,0.29c0,0.87-0.27,1.73-0.79,2.43c-0.54,0.71-1.27,1.27-2.11,1.6
				c-0.96,0.39-1.98,0.58-3.01,0.56C99.96-67.55,98.44-68.02,97.23-68.96z"/>
			<path id="Path_20" class="st0" d="M109.54-67.96c-0.09-0.09-0.14-0.22-0.13-0.34V-80.7c0-0.13,0.05-0.25,0.14-0.34
				c0.09-0.09,0.21-0.13,0.33-0.13h2.46c0.13,0,0.26,0.04,0.35,0.13c0.09,0.09,0.15,0.21,0.14,0.34v4.6h4.69v-4.6
				c-0.01-0.25,0.18-0.47,0.44-0.48c0.01,0,0.03,0,0.04,0h2.46c0.25-0.01,0.47,0.18,0.48,0.44c0,0.01,0,0.03,0,0.04v12.39
				c0.01,0.25-0.19,0.47-0.44,0.48c-0.01,0-0.03,0-0.04,0h-2.46c-0.25,0.01-0.47-0.18-0.48-0.44c0-0.01,0-0.03,0-0.04v-4.75h-4.69
				v4.75c0,0.13-0.05,0.25-0.14,0.34c-0.1,0.09-0.22,0.14-0.35,0.13h-2.46C109.75-67.82,109.63-67.87,109.54-67.96z"/>
			<path id="Path_21" class="st0" d="M124.83-68.96c-1.08-0.99-1.68-2.4-1.64-3.87c-0.01-0.37-0.02-0.92-0.02-1.64
				c0-0.74,0.01-1.29,0.02-1.66c-0.03-1.47,0.58-2.89,1.67-3.88c2.51-1.82,5.91-1.82,8.42,0c1.09,0.99,1.7,2.41,1.66,3.88
				c0.03,0.74,0.04,1.29,0.04,1.66c0,0.36-0.01,0.9-0.04,1.64c0.04,1.47-0.56,2.88-1.64,3.87C130.74-67.2,127.38-67.2,124.83-68.96
				L124.83-68.96z M130.73-71.01c0.46-0.54,0.69-1.22,0.66-1.93c0.03-0.74,0.04-1.26,0.04-1.56c0-0.33-0.01-0.85-0.04-1.56
				c0.03-0.7-0.21-1.39-0.67-1.93c-0.44-0.43-1.04-0.66-1.66-0.63c-0.61-0.03-1.21,0.2-1.65,0.63c-0.46,0.54-0.7,1.22-0.68,1.93
				c-0.01,0.36-0.02,0.88-0.02,1.56c0,0.67,0.01,1.2,0.02,1.56c-0.02,0.7,0.22,1.39,0.67,1.93c0.44,0.43,1.04,0.66,1.66,0.63
				C129.68-70.36,130.29-70.58,130.73-71.01L130.73-71.01z"/>
			<path id="Path_22" class="st0" d="M138.41-68.96c-1.08-0.99-1.68-2.4-1.64-3.87c-0.01-0.37-0.02-0.92-0.02-1.64
				c0-0.74,0.01-1.29,0.02-1.66c-0.03-1.47,0.58-2.89,1.67-3.88c2.51-1.82,5.91-1.82,8.42,0c1.09,0.99,1.7,2.41,1.66,3.88
				c0.03,0.74,0.04,1.29,0.04,1.66c0,0.36-0.01,0.9-0.04,1.64c0.04,1.47-0.56,2.88-1.64,3.87C144.32-67.2,140.95-67.2,138.41-68.96
				L138.41-68.96z M144.31-71.01c0.46-0.54,0.69-1.22,0.66-1.93c0.03-0.74,0.04-1.26,0.04-1.56c0-0.33-0.01-0.85-0.04-1.56
				c0.03-0.7-0.21-1.39-0.67-1.93c-0.44-0.43-1.04-0.66-1.66-0.63c-0.61-0.03-1.21,0.2-1.65,0.63c-0.46,0.54-0.7,1.22-0.68,1.93
				c-0.01,0.36-0.02,0.88-0.02,1.56c0,0.67,0.01,1.2,0.02,1.56c-0.02,0.7,0.22,1.39,0.67,1.93c0.44,0.43,1.04,0.66,1.66,0.63
				C143.26-70.36,143.86-70.58,144.31-71.01L144.31-71.01z"/>
			<path id="Path_23" class="st0" d="M150.9-67.97c-0.09-0.09-0.14-0.21-0.14-0.33V-80.7c0-0.13,0.05-0.25,0.14-0.34
				c0.09-0.09,0.21-0.13,0.33-0.13h2.52c0.25-0.01,0.47,0.18,0.48,0.44c0,0.01,0,0.03,0,0.04v9.99h5.78c0.13,0,0.25,0.05,0.34,0.14
				c0.09,0.1,0.14,0.22,0.13,0.35v1.91c0,0.12-0.05,0.24-0.13,0.33c-0.09,0.09-0.21,0.15-0.34,0.14h-8.77
				C151.11-67.83,150.99-67.88,150.9-67.97z"/>
		</g>
	</g>
</g>
</svg>
