<?xml version="1.0" encoding="utf-8"?>
<!-- Generator: Adobe Illustrator 24.1.1, SVG Export Plug-In . SVG Version: 6.00 Build 0)  -->
<svg version="1.1" id="Layer_1" xmlns="http://www.w3.org/2000/svg" xmlns:xlink="http://www.w3.org/1999/xlink" x="0px" y="0px"
	 viewBox="0 0 160 160" style="enable-background:new 0 0 160 160;" xml:space="preserve">
<style type="text/css">
	.st0{fill:#1394D5;}
	.st1{fill:#00338B;}
	.st2{fill:none;}
</style>
<g id="Group_25" transform="translate(-183.051 -903.392)">
	<g id="Group_15" transform="translate(203.051 923.392)">
		<g id="Group_13" transform="translate(28.021)">
			<path id="Path_2598" class="st0" d="M91.79,46.08h-1.94c-5.77,0-10.45-4.68-10.45-10.45c0-2.81,1.13-5.51,3.15-7.48l1.38-1.37
				l-17.8-17.8l-1.46-1.27L63.3,9.08c-4.08,4.08-10.7,4.08-14.78-0.01c-1.99-1.99-3.09-4.7-3.06-7.51v-1.93H20.3l-1.94,0.13v1.93
				c-0.01,4.04-2.35,7.71-6,9.42c0.13,0.68,0.19,1.37,0.19,2.07v3.87c-0.01,1.69-0.24,3.37-0.69,5
				c20.75-11.07,46.54-3.22,57.61,17.54c11.07,20.75,3.22,46.54-17.54,57.61c-15.22,8.12-33.83,6.25-47.14-4.73v5.86l-4.87,9.76
				l1.25,1.48c4.42-3.72,11.01-3.15,14.73,1.27c1.61,1.92,2.49,4.35,2.45,6.86v1.93h25.16l1.93-0.13v-1.93
				c0-5.77,4.68-10.45,10.45-10.45c2.82,0,5.52,1.14,7.49,3.16l1.37,1.35l17.79-17.78l1.27-1.46l-1.37-1.37
				c-4.08-4.08-4.08-10.7,0.01-14.78c1.99-1.99,4.7-3.09,7.51-3.06h1.93V48.02L91.79,46.08z"/>
		</g>
		<g id="Group_14">
			<path id="Path_2599" class="st1" d="M59.94,15.12c-6.02,0.01-11.98,1.23-17.51,3.6c0.05-0.55,0.09-1.11,0.09-1.67v-3.87
				C42.5,5.7,36.44-0.36,28.97-0.37h-1.93v9.68c0,1.07-0.87,1.93-1.94,1.93h-7.74c-1.07,0-1.93-0.87-1.93-1.93v-9.68h-1.94
				C6.01-0.36-0.05,5.7-0.06,13.18v3.87c0.02,6.35,2.85,12.37,7.74,16.42V98.8l9.02,18.03c1.25,2.5,4.29,3.52,6.79,2.27
				c0.98-0.49,1.78-1.29,2.27-2.27l9.02-18.03v-2.45c20.28,13.9,47.98,8.73,61.88-11.54c13.9-20.28,8.73-47.98-11.54-61.88
				C77.7,17.83,68.93,15.12,59.94,15.12L59.94,15.12z M3.81,17.05v-3.87c0.01-4.6,3.24-8.56,7.74-9.48v5.61
				c0,3.21,2.6,5.8,5.81,5.81h7.74c3.21,0,5.8-2.6,5.81-5.81V3.7c4.5,0.92,7.74,4.88,7.74,9.48v3.87
				c-0.02,5.26-2.41,10.24-6.51,13.55H10.32C6.22,27.29,3.83,22.31,3.81,17.05z M61.87,34.47v-7.65c7.37,0.43,14.38,3.33,19.89,8.25
				l-3.83,3.85l2.73,2.73l3.84-3.83c4.91,5.51,7.82,12.52,8.25,19.89H85.1v3.87h7.65c-0.43,7.37-3.33,14.38-8.25,19.89l-3.85-3.83
				l-2.73,2.73l3.83,3.84C76.25,89.1,69.24,92,61.87,92.43v-7.64H58v7.63C50.63,92,43.62,89.1,38.11,84.19l3.84-3.85l-2.74-2.73
				l-3.83,3.83c-0.2-0.22-0.41-0.43-0.6-0.66V38.47c0.19-0.23,0.4-0.44,0.6-0.66l3.85,3.83l2.73-2.73l-3.84-3.84
				c5.51-4.91,12.52-7.81,19.89-8.23v7.63L61.87,34.47z M12.74,100.28h16.97l-3.87,7.74h-9.22L12.74,100.28z M11.55,34.47h7.74V96.4
				h-7.74L11.55,34.47z M23.16,96.4V34.47h7.74V96.4H23.16z M20.16,115.1l-1.61-3.21h5.35l-1.61,3.21c-0.34,0.59-1.1,0.8-1.69,0.46
				C20.42,115.44,20.26,115.29,20.16,115.1L20.16,115.1z M59.94,100.28c-9.13-0.01-17.99-3.1-25.16-8.76v-5.08
				c14.8,13.9,38.08,13.17,51.98-1.63s13.17-38.08-1.63-51.98C72.16,20.65,52.34,19.5,38.05,30.09c1.53-2.01,2.71-4.27,3.46-6.68
				C61.51,13.23,85.98,21.2,96.16,41.2c10.18,20.01,2.21,44.48-17.79,54.65C72.66,98.76,66.34,100.28,59.94,100.28L59.94,100.28z"/>
			<circle id="Ellipse_1" class="st1" cx="59.94" cy="9.31" r="1.94"/>
			<circle id="Ellipse_2" class="st1" cx="59.94" cy="109.95" r="1.94"/>
			<path id="Path_2600" class="st1" d="M95.52,93.28c-1.07,0-1.94,0.86-1.94,1.93c0,1.07,0.86,1.94,1.93,1.94
				c1.07,0,1.94-0.86,1.94-1.93c0-0.51-0.2-1.01-0.56-1.37C96.52,93.48,96.03,93.28,95.52,93.28z"/>
			<circle id="Ellipse_3" class="st1" cx="110.26" cy="59.63" r="1.94"/>
			<path id="Path_2601" class="st1" d="M95.52,25.98c1.07,0,1.94-0.87,1.94-1.94c0-1.07-0.87-1.94-1.94-1.94
				c-1.07,0-1.94,0.87-1.94,1.94c0,0.51,0.2,1,0.56,1.36C94.51,25.78,95,25.98,95.52,25.98z"/>
			<path id="Path_2602" class="st1" d="M45.82,42.78l-2.74,2.74l11.63,11.63c-1.4,2.89-0.19,6.36,2.7,7.76
				c2.89,1.4,6.36,0.19,7.76-2.7c0.77-1.6,0.77-3.46,0-5.06l7.75-7.76l-2.73-2.73l-7.76,7.75c-1.57-0.77-3.41-0.77-4.97,0
				L45.82,42.78z M59.94,57.7c1.07,0,1.93,0.87,1.93,1.93s-0.87,1.93-1.93,1.93S58,60.7,58,59.63l0,0
				C58,58.56,58.87,57.7,59.94,57.7L59.94,57.7z"/>
		</g>
	</g>
	<rect id="Rectangle_442" x="182.99" y="903.02" class="st2" width="160" height="160"/>
</g>
</svg>
