<?xml version="1.0" encoding="utf-8"?>
<!-- Generator: Adobe Illustrator 24.1.1, SVG Export Plug-In . SVG Version: 6.00 Build 0)  -->
<svg version="1.1" id="Layer_1" xmlns="http://www.w3.org/2000/svg" xmlns:xlink="http://www.w3.org/1999/xlink" x="0px" y="0px"
	 viewBox="0 0 267.23 82.64" style="enable-background:new 0 0 267.23 82.64;" xml:space="preserve">
<style type="text/css">
	.st0{fill:#D32F2F;}
	.st1{fill:#212121;}
</style>
<g id="Logo_Full">
	<polygon class="st0" points="9.01,9.01 9.01,25.22 25.22,9.01 	"/>
	<path class="st1" d="M23.61,72.09V54.52h12.71h0.72L49.2,72.09h15.68L50.73,51.81c8.2-3.51,12.98-10.45,12.98-19.92
		c0-11.29-6.73-19.12-18.01-21.83L34.86,20.9h0.64c8.92,0,13.43,4.06,13.43,10.99c0,6.85-4.51,10.99-13.43,10.99h-11.9V32.16
		l-14.6,14.6v25.33H23.61z"/>
	<path class="st0" d="M42.73,9.51c-2.02-0.31-4.15-0.5-6.41-0.5h-7.55L9.01,28.76v14.46L42.73,9.51z"/>
	<polygon class="st1" points="54,0 52.23,0 37.77,0 36.04,0 32.59,3.45 34.32,3.45 48.79,3.45 50.55,3.45 52.32,3.45 68.62,3.45 
		68.62,77.63 3.45,77.63 3.45,52.32 3.45,50.55 3.45,48.79 3.45,34.32 3.45,32.59 0,36.04 0,37.77 0,52.23 0,54 0,81.08 
		72.07,81.08 72.07,0 	"/>
	<path class="st1" d="M103.39,37.31l-6.78-10.39h-0.4h-7.08v10.39H81V0h15.21c9.39,0,15.26,5.17,15.26,13.54
		c0,5.6-2.66,9.7-7.23,11.78l7.88,11.99H103.39z M95.76,7.04h-6.63v13h6.63c4.97,0,7.48-2.45,7.48-6.5
		C103.24,9.44,100.73,7.04,95.76,7.04z"/>
	<path class="st1" d="M134.26,24.09v13.22h-8.13V23.99L112.52,0h8.63l9.39,16.58L139.93,0h7.98L134.26,24.09z"/>
	<polygon class="st1" points="175.72,0.01 175.72,21.54 158.06,6.12 151.05,0 151.05,37.29 158.06,37.29 158.06,15.76 175.72,31.2 
		182.69,37.29 182.69,0.01 	"/>
	<path class="st1" d="M81,42.7h10.77c4.6,0,8.39,0.94,11.36,2.83c2.97,1.89,5.13,4.33,6.49,7.33c1.35,3,2.03,6.21,2.03,9.64
		c0,3.67-0.82,6.91-2.45,9.72c-1.63,2.81-3.83,4.96-6.58,6.47c-2.76,1.51-5.78,2.26-9.08,2.26H81V42.7z M92.31,73.67
		c3.69,0,6.61-1,8.76-3.01c2.15-2.01,3.23-4.9,3.23-8.68c0-3.05-0.6-5.47-1.79-7.27c-1.19-1.8-2.58-3.05-4.16-3.74
		c-1.58-0.69-3.08-1.04-4.48-1.04H88.1v23.75H92.31z"/>
	<path class="st1" d="M143.31,42.7v7.28h-17.47v8.16h15.47v7.27h-15.47v8.26h18.16v7.27h-25.26V42.7H143.31z"/>
	<path class="st1" d="M162.4,49.2c-1.57,0-2.78,0.33-3.65,0.99c-0.87,0.66-1.3,1.65-1.3,2.96c0,1.21,0.63,2.28,1.88,3.2
		c1.26,0.92,2.93,1.79,5.02,2.62c1.7,0.66,3.15,1.41,4.36,2.26c1.21,0.85,2.21,2.02,3.01,3.51c0.8,1.49,1.2,3.38,1.2,5.66
		c0,1.97-0.48,3.8-1.44,5.48c-0.96,1.68-2.37,3.01-4.23,4c-1.86,0.99-4.08,1.48-6.66,1.48c-2.15,0-4.29-0.34-6.41-1.01
		c-2.12-0.68-4.1-1.71-5.92-3.09l3.13-5.87c1.24,0.97,2.66,1.77,4.26,2.39c1.6,0.62,3.03,0.94,4.31,0.94c1.5,0,2.81-0.34,3.92-1.01
		c1.11-0.68,1.66-1.77,1.66-3.3c0-1.97-1.75-3.69-5.24-5.14c-2.06-0.87-3.77-1.7-5.14-2.49c-1.37-0.8-2.55-1.94-3.55-3.43
		c-1-1.49-1.49-3.36-1.49-5.61c0-3.29,1.02-5.94,3.06-7.95c2.04-2.01,4.76-3.1,8.15-3.27c2.68,0,4.91,0.32,6.71,0.96
		c1.79,0.64,3.54,1.55,5.24,2.73l-2.69,5.77C167.44,50.12,164.71,49.2,162.4,49.2z"/>
	<path class="st1" d="M186.97,42.7v38.25h-7.1V42.7H186.97z"/>
	<path class="st1" d="M222.53,79.05c-1.42,0.68-2.99,1.23-4.7,1.66s-3.27,0.65-4.67,0.65c-3.82,0-7.17-0.79-10.06-2.36
		c-2.89-1.58-5.11-3.76-6.68-6.55c-1.57-2.79-2.35-5.97-2.35-9.54c0-4.47,0.83-8.25,2.5-11.35c1.66-3.1,3.9-5.42,6.71-6.96
		c2.81-1.54,5.91-2.31,9.3-2.31c2.19,0,4.24,0.26,6.17,0.78c1.92,0.52,3.62,1.2,5.09,2.03l-2.3,7.02c-0.95-0.55-2.24-1.07-3.89-1.53
		c-1.65-0.47-3.03-0.7-4.14-0.7c-3.92,0-6.91,1.04-8.98,3.12c-2.07,2.08-3.11,5.16-3.11,9.25c0,2.36,0.51,4.41,1.52,6.16
		c1.01,1.75,2.42,3.09,4.23,4.03c1.81,0.94,3.87,1.4,6.19,1.4c2.22,0,3.87-0.33,4.94-0.99v-4.63h-6.22v-7.27h13.41V77.1
		C224.93,77.73,223.95,78.38,222.53,79.05z"/>
	<path class="st1" d="M266.02,42.7v39.81h-0.2l-25.21-24.16l0.15,22.6h-7.2V41.19h0.29l25.16,24.53l-0.15-23.02H266.02z"/>
</g>
</svg>
